{
    "accessors": [
        {
            "bufferView": 6,
            "byteOffset": 0,
            "componentType": 5126,
            "count": 36,
            "max": [
                1.0,
                1.0
            ],
            "min": [
                0.0,
                0.0
            ],
            "name": "accessor_buffer_block_mesh.002_TEXCOORD_0_0",
            "type": "VEC2"
        },
        {
            "bufferView": 22,
            "byteOffset": 0,
            "componentType": 5126,
            "count": 36,
            "max": [
                1.0,
                1.0
            ],
            "min": [
                0.0,
                0.0
            ],
            "name": "accessor_buffer_block_mesh.007_TEXCOORD_0_0",
            "type": "VEC2"
        },
        {
            "bufferView": 21,
            "byteOffset": 0,
            "componentType": 5126,
            "count": 36,
            "max": [
                0.5311019420623779,
                0.5311028361320496,
                -0.7167309522628784
            ],
            "min": [
                -0.5311019420623779,
                -0.5311028361320496,
                -1.0
            ],
            "name": "accessor_buffer_block_mesh.007_NORMAL_0",
            "type": "VEC3"
        },
        {
            "bufferView": 2,
            "byteOffset": 0,
            "componentType": 5126,
            "count": 36,
            "max": [
                1.0,
                1.0
            ],
            "min": [
                0.0,
                0.0
            ],
            "name": "accessor_buffer_block_mesh.001_TEXCOORD_0_0",
            "type": "VEC2"
        },
        {
            "bufferView": 1,
            "byteOffset": 0,
            "componentType": 5126,
            "count": 36,
            "max": [
                0.5311028361320496,
                -0.7167309522628784,
                0.5311019420623779
            ],
            "min": [
                -0.5311028361320496,
                -1.0,
                -0.5311019420623779
            ],
            "name": "accessor_buffer_block_mesh.001_NORMAL_0",
            "type": "VEC3"
        },
        {
            "bufferView": 20,
            "byteOffset": 0,
            "componentType": 5126,
            "count": 36,
            "max": [
                0.9792893528938293,
                0.9792893528938293,
                -0.9701141715049744
            ],
            "min": [
                -0.9792893528938293,
                -0.9792893528938293,
                -1.0
            ],
            "name": "accessor_buffer_block_mesh.007_POSITION_0",
            "type": "VEC3"
        },
        {
            "bufferView": 14,
            "byteOffset": 0,
            "componentType": 5126,
            "count": 36,
            "max": [
                1.0,
                1.0
            ],
            "min": [
                0.0,
                0.0
            ],
            "name": "accessor_buffer_block_mesh.005_TEXCOORD_0_0",
            "type": "VEC2"
        },
        {
            "bufferView": 12,
            "byteOffset": 0,
            "componentType": 5126,
            "count": 36,
            "max": [
                -0.9701141715049744,
                0.9792893528938293,
                0.9792893528938293
            ],
            "min": [
                -1.0,
                -0.9792893528938293,
                -0.9792893528938293
            ],
            "name": "accessor_buffer_block_mesh.005_POSITION_0",
            "type": "VEC3"
        },
        {
            "bufferView": 23,
            "byteOffset": 0,
            "componentType": 5123,
            "count": 150,
            "max": [
                35
            ],
            "min": [
                0
            ],
            "name": "accessor_buffer_block_mesh.007_0",
            "type": "SCALAR"
        },
        {
            "bufferView": 11,
            "byteOffset": 0,
            "componentType": 5123,
            "count": 150,
            "max": [
                35
            ],
            "min": [
                0
            ],
            "name": "accessor_buffer_block_mesh.004_0",
            "type": "SCALAR"
        },
        {
            "bufferView": 18,
            "byteOffset": 0,
            "componentType": 5126,
            "count": 36,
            "max": [
                1.0,
                1.0
            ],
            "min": [
                0.0,
                0.0
            ],
            "name": "accessor_buffer_block_mesh.006_TEXCOORD_0_0",
            "type": "VEC2"
        },
        {
            "bufferView": 3,
            "byteOffset": 0,
            "componentType": 5123,
            "count": 150,
            "max": [
                35
            ],
            "min": [
                0
            ],
            "name": "accessor_buffer_block_mesh.001_0",
            "type": "SCALAR"
        },
        {
            "bufferView": 7,
            "byteOffset": 0,
            "componentType": 5123,
            "count": 150,
            "max": [
                35
            ],
            "min": [
                0
            ],
            "name": "accessor_buffer_block_mesh.002_0",
            "type": "SCALAR"
        },
        {
            "bufferView": 19,
            "byteOffset": 0,
            "componentType": 5123,
            "count": 150,
            "max": [
                35
            ],
            "min": [
                0
            ],
            "name": "accessor_buffer_block_mesh.006_0",
            "type": "SCALAR"
        },
        {
            "bufferView": 5,
            "byteOffset": 0,
            "componentType": 5126,
            "count": 36,
            "max": [
                1.0,
                0.5551118850708008,
                0.5311028361320496
            ],
            "min": [
                0.7167309522628784,
                -0.5311018824577332,
                -0.5311028361320496
            ],
            "name": "accessor_buffer_block_mesh.002_NORMAL_0",
            "type": "VEC3"
        },
        {
            "bufferView": 17,
            "byteOffset": 0,
            "componentType": 5126,
            "count": 36,
            "max": [
                0.5311019420623779,
                0.5551124215126038,
                1.0
            ],
            "min": [
                -0.5311019420623779,
                -0.5311028361320496,
                0.7167309522628784
            ],
            "name": "accessor_buffer_block_mesh.006_NORMAL_0",
            "type": "VEC3"
        },
        {
            "bufferView": 13,
            "byteOffset": 0,
            "componentType": 5126,
            "count": 36,
            "max": [
                -0.7167309522628784,
                0.5311018824577332,
                0.5311028361320496
            ],
            "min": [
                -1.0,
                -0.5311018824577332,
                -0.5311028361320496
            ],
            "name": "accessor_buffer_block_mesh.005_NORMAL_0",
            "type": "VEC3"
        },
        {
            "bufferView": 8,
            "byteOffset": 0,
            "componentType": 5126,
            "count": 36,
            "max": [
                0.9792893528938293,
                1.0,
                0.9792893528938293
            ],
            "min": [
                -0.9792893528938293,
                0.9701141715049744,
                -0.9792893528938293
            ],
            "name": "accessor_buffer_block_mesh.004_POSITION_0",
            "type": "VEC3"
        },
        {
            "bufferView": 15,
            "byteOffset": 0,
            "componentType": 5123,
            "count": 150,
            "max": [
                35
            ],
            "min": [
                0
            ],
            "name": "accessor_buffer_block_mesh.005_0",
            "type": "SCALAR"
        },
        {
            "bufferView": 16,
            "byteOffset": 0,
            "componentType": 5126,
            "count": 36,
            "max": [
                0.9792893528938293,
                0.9792893528938293,
                1.0
            ],
            "min": [
                -0.9792893528938293,
                -0.9792893528938293,
                0.9701141715049744
            ],
            "name": "accessor_buffer_block_mesh.006_POSITION_0",
            "type": "VEC3"
        },
        {
            "bufferView": 0,
            "byteOffset": 0,
            "componentType": 5126,
            "count": 36,
            "max": [
                0.9792893528938293,
                -0.9701141715049744,
                0.9792893528938293
            ],
            "min": [
                -0.9792893528938293,
                -1.0,
                -0.9792893528938293
            ],
            "name": "accessor_buffer_block_mesh.001_POSITION_0",
            "type": "VEC3"
        },
        {
            "bufferView": 4,
            "byteOffset": 0,
            "componentType": 5126,
            "count": 36,
            "max": [
                1.0,
                0.9792893528938293,
                0.9792893528938293
            ],
            "min": [
                0.9701141715049744,
                -0.9792893528938293,
                -0.9792893528938293
            ],
            "name": "accessor_buffer_block_mesh.002_POSITION_0",
            "type": "VEC3"
        },
        {
            "bufferView": 10,
            "byteOffset": 0,
            "componentType": 5126,
            "count": 36,
            "max": [
                1.0,
                1.0
            ],
            "min": [
                0.0,
                0.0
            ],
            "name": "accessor_buffer_block_mesh.004_TEXCOORD_0_0",
            "type": "VEC2"
        },
        {
            "bufferView": 9,
            "byteOffset": 0,
            "componentType": 5126,
            "count": 36,
            "max": [
                0.5551124215126038,
                1.0,
                0.5551118850708008
            ],
            "min": [
                -0.5311028361320496,
                0.7167309522628784,
                -0.5311019420623779
            ],
            "name": "accessor_buffer_block_mesh.004_NORMAL_0",
            "type": "VEC3"
        }
    ],
    "asset": {
        "copyright": "",
        "generator": "blendergltf v1.2.0",
        "version": "2.0"
    },
    "bufferViews": [
        {
            "buffer": 0,
            "byteLength": 432,
            "byteOffset": 0,
            "byteStride": 12,
            "name": "bufferView_buffer_block_mesh.001_POSITION_0",
            "target": 34962
        },
        {
            "buffer": 0,
            "byteLength": 432,
            "byteOffset": 432,
            "byteStride": 12,
            "name": "bufferView_buffer_block_mesh.001_NORMAL_0",
            "target": 34962
        },
        {
            "buffer": 0,
            "byteLength": 288,
            "byteOffset": 864,
            "byteStride": 8,
            "name": "bufferView_buffer_block_mesh.001_TEXCOORD_0_0",
            "target": 34962
        },
        {
            "buffer": 0,
            "byteLength": 304,
            "byteOffset": 1152,
            "name": "bufferView_buffer_block_mesh.001_0",
            "target": 34963
        },
        {
            "buffer": 0,
            "byteLength": 432,
            "byteOffset": 1456,
            "byteStride": 12,
            "name": "bufferView_buffer_block_mesh.002_POSITION_0",
            "target": 34962
        },
        {
            "buffer": 0,
            "byteLength": 432,
            "byteOffset": 1888,
            "byteStride": 12,
            "name": "bufferView_buffer_block_mesh.002_NORMAL_0",
            "target": 34962
        },
        {
            "buffer": 0,
            "byteLength": 288,
            "byteOffset": 2320,
            "byteStride": 8,
            "name": "bufferView_buffer_block_mesh.002_TEXCOORD_0_0",
            "target": 34962
        },
        {
            "buffer": 0,
            "byteLength": 304,
            "byteOffset": 2608,
            "name": "bufferView_buffer_block_mesh.002_0",
            "target": 34963
        },
        {
            "buffer": 0,
            "byteLength": 432,
            "byteOffset": 2912,
            "byteStride": 12,
            "name": "bufferView_buffer_block_mesh.004_POSITION_0",
            "target": 34962
        },
        {
            "buffer": 0,
            "byteLength": 432,
            "byteOffset": 3344,
            "byteStride": 12,
            "name": "bufferView_buffer_block_mesh.004_NORMAL_0",
            "target": 34962
        },
        {
            "buffer": 0,
            "byteLength": 288,
            "byteOffset": 3776,
            "byteStride": 8,
            "name": "bufferView_buffer_block_mesh.004_TEXCOORD_0_0",
            "target": 34962
        },
        {
            "buffer": 0,
            "byteLength": 304,
            "byteOffset": 4064,
            "name": "bufferView_buffer_block_mesh.004_0",
            "target": 34963
        },
        {
            "buffer": 0,
            "byteLength": 432,
            "byteOffset": 4368,
            "byteStride": 12,
            "name": "bufferView_buffer_block_mesh.005_POSITION_0",
            "target": 34962
        },
        {
            "buffer": 0,
            "byteLength": 432,
            "byteOffset": 4800,
            "byteStride": 12,
            "name": "bufferView_buffer_block_mesh.005_NORMAL_0",
            "target": 34962
        },
        {
            "buffer": 0,
            "byteLength": 288,
            "byteOffset": 5232,
            "byteStride": 8,
            "name": "bufferView_buffer_block_mesh.005_TEXCOORD_0_0",
            "target": 34962
        },
        {
            "buffer": 0,
            "byteLength": 304,
            "byteOffset": 5520,
            "name": "bufferView_buffer_block_mesh.005_0",
            "target": 34963
        },
        {
            "buffer": 0,
            "byteLength": 432,
            "byteOffset": 5824,
            "byteStride": 12,
            "name": "bufferView_buffer_block_mesh.006_POSITION_0",
            "target": 34962
        },
        {
            "buffer": 0,
            "byteLength": 432,
            "byteOffset": 6256,
            "byteStride": 12,
            "name": "bufferView_buffer_block_mesh.006_NORMAL_0",
            "target": 34962
        },
        {
            "buffer": 0,
            "byteLength": 288,
            "byteOffset": 6688,
            "byteStride": 8,
            "name": "bufferView_buffer_block_mesh.006_TEXCOORD_0_0",
            "target": 34962
        },
        {
            "buffer": 0,
            "byteLength": 304,
            "byteOffset": 6976,
            "name": "bufferView_buffer_block_mesh.006_0",
            "target": 34963
        },
        {
            "buffer": 0,
            "byteLength": 432,
            "byteOffset": 7280,
            "byteStride": 12,
            "name": "bufferView_buffer_block_mesh.007_POSITION_0",
            "target": 34962
        },
        {
            "buffer": 0,
            "byteLength": 432,
            "byteOffset": 7712,
            "byteStride": 12,
            "name": "bufferView_buffer_block_mesh.007_NORMAL_0",
            "target": 34962
        },
        {
            "buffer": 0,
            "byteLength": 288,
            "byteOffset": 8144,
            "byteStride": 8,
            "name": "bufferView_buffer_block_mesh.007_TEXCOORD_0_0",
            "target": 34962
        },
        {
            "buffer": 0,
            "byteLength": 304,
            "byteOffset": 8432,
            "name": "bufferView_buffer_block_mesh.007_0",
            "target": 34963
        }
    ],
    "buffers": [
        {
            "byteLength": 8736,
            "name": "buffer_rubikscube_block_faces",
            "uri": "buffer_rubikscube_block_faces.bin"
        }
    ],
    "meshes": [
        {
            "name": "block_mesh.001",
            "primitives": [
                {
                    "attributes": {
                        "NORMAL": 4,
                        "POSITION": 20,
                        "TEXCOORD_0": 3
                    },
                    "indices": 11,
                    "mode": 4
                }
            ]
        },
        {
            "name": "block_mesh.002",
            "primitives": [
                {
                    "attributes": {
                        "NORMAL": 14,
                        "POSITION": 21,
                        "TEXCOORD_0": 0
                    },
                    "indices": 12,
                    "mode": 4
                }
            ]
        },
        {
            "name": "block_mesh.004",
            "primitives": [
                {
                    "attributes": {
                        "NORMAL": 23,
                        "POSITION": 17,
                        "TEXCOORD_0": 22
                    },
                    "indices": 9,
                    "mode": 4
                }
            ]
        },
        {
            "name": "block_mesh.005",
            "primitives": [
                {
                    "attributes": {
                        "NORMAL": 16,
                        "POSITION": 7,
                        "TEXCOORD_0": 6
                    },
                    "indices": 18,
                    "mode": 4
                }
            ]
        },
        {
            "name": "block_mesh.006",
            "primitives": [
                {
                    "attributes": {
                        "NORMAL": 15,
                        "POSITION": 19,
                        "TEXCOORD_0": 10
                    },
                    "indices": 13,
                    "mode": 4
                }
            ]
        },
        {
            "name": "block_mesh.007",
            "primitives": [
                {
                    "attributes": {
                        "NORMAL": 2,
                        "POSITION": 5,
                        "TEXCOORD_0": 1
                    },
                    "indices": 8,
                    "mode": 4
                }
            ]
        }
    ],
    "nodes": [
        {
            "mesh": 2,
            "name": "face0",
            "rotation": [
                0.0,
                0.0,
                0.0,
                1.0
            ],
            "scale": [
                1.0,
                1.0,
                1.0
            ],
            "translation": [
                0.0,
                0.0,
                0.0
            ]
        },
        {
            "mesh": 3,
            "name": "face1",
            "rotation": [
                0.0,
                0.0,
                0.0,
                1.0
            ],
            "scale": [
                1.0,
                1.0,
                1.0
            ],
            "translation": [
                0.0,
                0.0,
                0.0
            ]
        },
        {
            "mesh": 4,
            "name": "face2",
            "rotation": [
                0.0,
                0.0,
                0.0,
                1.0
            ],
            "scale": [
                1.0,
                1.0,
                1.0
            ],
            "translation": [
                0.0,
                0.0,
                0.0
            ]
        },
        {
            "mesh": 0,
            "name": "face3",
            "rotation": [
                0.0,
                0.0,
                0.0,
                1.0
            ],
            "scale": [
                1.0,
                1.0,
                1.0
            ],
            "translation": [
                0.0,
                0.0,
                0.0
            ]
        },
        {
            "mesh": 1,
            "name": "face4",
            "rotation": [
                0.0,
                0.0,
                0.0,
                1.0
            ],
            "scale": [
                1.0,
                1.0,
                1.0
            ],
            "translation": [
                0.0,
                0.0,
                0.0
            ]
        },
        {
            "mesh": 5,
            "name": "face5",
            "rotation": [
                0.0,
                0.0,
                0.0,
                1.0
            ],
            "scale": [
                1.0,
                1.0,
                1.0
            ],
            "translation": [
                0.0,
                0.0,
                0.0
            ]
        }
    ],
    "scene": 0,
    "scenes": [
        {
            "extras": {
                "background_color": [
                    0.05087608844041824,
                    0.05087608844041824,
                    0.05087608844041824
                ],
                "frames_per_second": 24
            },
            "name": "Scene",
            "nodes": [
                5,
                4,
                3,
                2,
                1,
                0
            ]
        }
    ]
}
